<svg version="1.2" xmlns="http://www.w3.org/2000/svg" viewBox="0 0 551 551" width="551" height="551"><style></style><path  d="m387.1 1h-222.3c-21.5 0-42.8 4.3-62.6 12.5-19.9 8.2-38 20.3-53.2 35.5-15.2 15.2-27.3 33.3-35.5 53.2-8.2 19.8-12.5 41.1-12.5 62.7v222.2c0 21.5 4.3 42.8 12.5 62.7 8.2 19.9 20.3 37.9 35.5 53.2 15.2 15.2 33.3 27.3 53.2 35.5 19.8 8.2 41.1 12.5 62.7 12.5h222.2c21.5 0 42.8-4.3 62.7-12.5 19.9-8.3 37.9-20.3 53.1-35.5 15.3-15.3 27.3-33.3 35.6-53.2 8.2-19.9 12.5-41.2 12.5-62.7v-222.2c0-21.6-4.3-42.9-12.5-62.7-8.3-19.9-20.3-38-35.5-53.2-15.3-15.2-33.3-27.3-53.2-35.5-19.9-8.2-41.2-12.5-62.7-12.5zm108.6 386.1c0 14.3-2.8 28.4-8.3 41.6-5.5 13.1-13.4 25.1-23.5 35.2-10.1 10.1-22.1 18-35.2 23.5-13.2 5.5-27.3 8.3-41.6 8.3h-222.2c-14.3 0-28.4-2.8-41.6-8.3-13.2-5.4-25.1-13.4-35.2-23.5-10.1-10.1-18.1-22.1-23.5-35.2-5.5-13.2-8.3-27.3-8.3-41.6v-222.3c0-14.2 2.8-28.3 8.3-41.5 5.4-13.2 13.4-25.1 23.5-35.2 10.1-10.1 22-18.1 35.2-23.5 13.2-5.5 27.3-8.3 41.6-8.3h222.2c14.3 0 28.4 2.8 41.6 8.3 13.1 5.4 25.1 13.4 35.2 23.5 10 10.1 18 22.1 23.5 35.2 5.4 13.2 8.2 27.3 8.3 41.6z"/><path  d="m276 133.8c-78.4 0-142.2 63.8-142.2 142.2 0 78.4 63.8 142.2 142.2 142.2 78.4 0 142.2-63.8 142.2-142.2 0-78.4-63.8-142.2-142.2-142.2zm0 229.1c-23 0-45.1-9.2-61.4-25.5-16.3-16.3-25.5-38.3-25.5-61.4 0-23 9.2-45.1 25.4-61.4 16.3-16.3 38.4-25.5 61.5-25.5 23 0 45.1 9.2 61.4 25.5 16.3 16.3 25.5 38.3 25.5 61.4 0 23-9.2 45.1-25.5 61.4-16.3 16.3-38.4 25.5-61.4 25.5zm142.5-262.1c13.8 0 26.2 8.3 31.5 21 5.2 12.8 2.3 27.4-7.4 37.1-9.8 9.8-24.4 12.7-37.2 7.4-12.7-5.2-21-17.6-21-31.4 0-18.8 12.7-34.1 34.1-34.1z"/></svg>